<?xml version="1.0" encoding="UTF-8"?>
<!DOCTYPE svg PUBLIC "-//W3C//DTD SVG 1.1//EN" "http://www.w3.org/Graphics/SVG/1.1/DTD/svg11.dtd">
<svg xmlns="http://www.w3.org/2000/svg" version="1.1" width="2048px" height="2048px" style="shape-rendering:geometricPrecision; text-rendering:geometricPrecision; image-rendering:optimizeQuality; fill-rule:evenodd; clip-rule:evenodd" xmlns:xlink="http://www.w3.org/1999/xlink">
<g><path style="opacity:1" fill="#000000" d="M 890.5,357.5 C 1013.61,352.001 1116.11,394.667 1198,485.5C 1206.41,496.559 1214.74,507.559 1223,518.5C 1300.76,485.448 1374.92,491.948 1445.5,538C 1492.36,572.514 1522.03,618.347 1534.5,675.5C 1600.39,695.858 1653.22,734.191 1693,790.5C 1745.56,869.271 1763.89,955.604 1748,1049.5C 1724.78,1157.47 1664.28,1236.97 1566.5,1288C 1515.15,1311.72 1461.15,1322.22 1404.5,1319.5C 1388.35,1319.35 1372.18,1319.35 1356,1319.5C 1345.79,1319.29 1337.13,1315.63 1330,1308.5C 1322.37,1295.29 1323.87,1283.12 1334.5,1272C 1339.63,1268.85 1345.13,1266.68 1351,1265.5C 1366.45,1266.09 1382.28,1266.43 1398.5,1266.5C 1514.44,1271.87 1602.61,1225.54 1663,1127.5C 1713.28,1031.89 1712.95,936.561 1662,841.5C 1624.67,778.575 1570.5,738.075 1499.5,720C 1494.11,717.945 1489.95,714.445 1487,709.5C 1479.79,648.874 1450.29,602.707 1398.5,571C 1352.96,547.514 1305.96,544.181 1257.5,561C 1244.93,566.284 1232.93,572.618 1221.5,580C 1210.24,582.647 1200.74,579.814 1193,571.5C 1140.53,482.428 1063.03,429.594 960.5,413C 846.727,399.822 749.893,434.322 670,516.5C 614.525,576.887 585.192,648.22 582,730.5C 580.207,740.617 574.707,747.784 565.5,752C 476.452,768.41 412.285,817.244 373,898.5C 342.423,969.173 341.756,1040.17 371,1111.5C 411.982,1198.85 480.315,1249.85 576,1264.5C 582.483,1265.19 588.983,1265.69 595.5,1266C 710.167,1266.33 824.833,1266.67 939.5,1267C 951.231,1270.73 957.898,1278.73 959.5,1291C 958.482,1304.68 951.482,1313.68 938.5,1318C 930.044,1319.06 921.544,1319.56 913,1319.5C 802.791,1319.19 692.625,1318.69 582.5,1318C 469.878,1305.96 386.045,1250.79 331,1152.5C 280.834,1048.03 284.167,945.36 341,844.5C 379.336,781.17 433.502,737.337 503.5,713C 511.977,710.589 520.477,708.423 529,706.5C 537.634,622.603 569.634,549.27 625,486.5C 686.23,419.12 762.063,377.62 852.5,362C 865.293,360.29 877.96,358.79 890.5,357.5 Z"/></g>
<g><path style="opacity:1" fill="#000000" d="M 1129.5,1226.5 C 1201.05,1224.01 1252.55,1254.67 1284,1318.5C 1309.86,1389.32 1295.02,1449.82 1239.5,1500C 1199.97,1530.19 1155.64,1540.19 1106.5,1530C 1052,1515.83 1014.83,1482.33 995,1429.5C 977.06,1365.08 992.227,1309.91 1040.5,1264C 1066.47,1242.68 1096.13,1230.18 1129.5,1226.5 Z M 1132.5,1278.5 C 1182.06,1276.91 1217.23,1298.57 1238,1343.5C 1251.49,1388.05 1241.32,1426.22 1207.5,1458C 1179.88,1479.86 1148.88,1486.53 1114.5,1478C 1057.87,1456.91 1034.03,1416.41 1043,1356.5C 1053.13,1319.7 1076.3,1295.2 1112.5,1283C 1119.24,1281.26 1125.91,1279.76 1132.5,1278.5 Z"/></g>
<g><path style="opacity:1" fill="#000000" d="M 902.5,1489.5 C 960.445,1489.63 996.612,1517.63 1011,1573.5C 1015.91,1616.14 1001.08,1649.97 966.5,1675C 924.624,1698.79 884.291,1696.46 845.5,1668C 810.984,1635.77 801.484,1597.27 817,1552.5C 834.076,1515.92 862.576,1494.92 902.5,1489.5 Z M 901.5,1542.5 C 920.092,1540.01 935.592,1545.68 948,1559.5C 961.324,1576.65 962.99,1594.98 953,1614.5C 934.744,1640.52 911.577,1646.02 883.5,1631C 859.227,1610.07 856.06,1586.24 874,1559.5C 881.582,1551.13 890.749,1545.47 901.5,1542.5 Z"/></g>
<g><path style="opacity:1" fill="#000000" d="M 2014.5,1928.5 C 2015.5,1928.83 2016.17,1929.5 2016.5,1930.5C 2016.5,1931.17 2016.17,1931.5 2015.5,1931.5C 2014.89,1930.61 2014.56,1929.61 2014.5,1928.5 Z"/></g>
<g><path style="opacity:1" fill="#f9faf9" d="M 2016.5,1930.5 C 2017.49,1931.8 2018.49,1933.13 2019.5,1934.5C 2018.5,1934.59 2017.67,1934.25 2017,1933.5C 2016.72,1934.42 2016.22,1935.08 2015.5,1935.5C 2015.5,1934.17 2015.5,1932.83 2015.5,1931.5C 2016.17,1931.5 2016.5,1931.17 2016.5,1930.5 Z"/></g>
<g><path style="opacity:1" fill="#969696" d="M 2010.5,1927.5 C 2012.1,1927.23 2013.43,1927.57 2014.5,1928.5C 2014.56,1929.61 2014.89,1930.61 2015.5,1931.5C 2015.5,1932.83 2015.5,1934.17 2015.5,1935.5C 2015.57,1935.94 2015.4,1936.27 2015,1936.5C 2014.19,1934.72 2013.02,1933.22 2011.5,1932C 2013.69,1931.4 2013.85,1930.23 2012,1928.5C 2011.46,1930.27 2010.63,1930.6 2009.5,1929.5C 2009.86,1928.82 2010.2,1928.15 2010.5,1927.5 Z"/></g>
<g><path style="opacity:1" fill="#333333" d="M 2010.5,1927.5 C 2010.2,1928.15 2009.86,1928.82 2009.5,1929.5C 2010.63,1930.6 2011.46,1930.27 2012,1928.5C 2013.85,1930.23 2013.69,1931.4 2011.5,1932C 2013.02,1933.22 2014.19,1934.72 2015,1936.5C 2015.4,1936.27 2015.57,1935.94 2015.5,1935.5C 2016.22,1935.08 2016.72,1934.42 2017,1933.5C 2017.67,1934.25 2018.5,1934.59 2019.5,1934.5C 2020.06,1935.76 2020.73,1937.42 2021.5,1939.5C 2014.92,1938.82 2008.59,1937.32 2002.5,1935C 2004.5,1932.67 2006.5,1930.33 2008.5,1928C 2009.09,1927.54 2009.76,1927.37 2010.5,1927.5 Z"/></g>
</svg>
